,
  Hottest scene tracker on the net !!!   http://www.scenetime.com
 
    seed back for speed


 



...................................NFO:.................................................
                                                     
                                                   
                                                         
                                                          
                                                           
                                                          
                                                          
                                                          
                                                           
                                                         
                                                          
                                                        
                                                      
                                     
                                                 
                                                   
                                             
                                              
                                                     
                                                      
                                                      
                                                      
                                                    
                                                     
                                                   
                                                     
                                                     
                                                      
                                                     
                                                      
                                                    
                 ARTiCHOKE                        
                                                
                      
                                                        
                                                      
                                                      
                                               
                                          
                                                   
                                            
                                                    
                                                       
                                                        
                                                      
                                                
                                                        
                                                 
                                              
                                                  
                                                
                                                  
                                        

      
                                
      SPRiNTER proudly presents...     
                                
      
 
Kiss.The.Boys.2006.DVDRip.XViD-SPRiNTER
http://www.imdb.com/title/tt0933750/


Date: 2011.02
Genre: Thriller 


Plot : Sam (Kurt Sinclair), a Beverly Hills plastic surgeon, learns you can't escape your past -- especially when it includes murder -- in this disturbing chiller. 
	 When Sam's wife stumbles on hubby's dark secret, things start getting weird for the doc -- especially when the teen he killed comes back to inhabit his body. Now, L.A.'s most 
	 dashing male escorts are being killed, and Sam -- or is it his alter ego? -- is responsible for their murders. 



  Christopher Davison  ...  Tony  
  Gregg Edwards  ...  Detective O'Connell  
  Elliott Ehlers  ...  Scott  
  Russell Bradley Fenton  ...  Ben (as Russell Fenton)  
  Steve Hales  ...  Rex  
  Chris Robertson  ...  Detective Marcus  
  Steve Silverie  ...  Detective Brennan  
  Kurt Sinclair  ...  Sam  
  Bethany Marie Wilson   


      
                 
      Release notes     
                 
      

     Enjoy...


      
           
     Greetings    
           
      


NTX aAF FiCO HNR CiNEFiLE AEN HUMANiSM SSF


      
           
      Details     
           
      


General
Format                           : AVI
Format/Info                      : Audio Video Interleave
File size                        : 1.36 GiB
Duration                         : 1h 55mn
Overall bit rate                 : 1 681 Kbps
Writing application              : Nandub v1.0rc2
Writing library                  : Nandub build 1852/release

Video
ID                               : 0
Format                           : MPEG-4 Visual
Format profile                   : AdvancedSimple@L5
Format settings, BVOP            : No
Format settings, QPel            : No
Format settings, GMC             : No warppoints
Format settings, Matrix          : Default (H.263)
Codec ID                         : XVID
Codec ID/Hint                    : XviD
Duration                         : 1h 55mn
Bit rate                         : 1 527 Kbps
Width                            : 512 pixels
Height                           : 384 pixels
Display aspect ratio             : 4:3
Frame rate                       : 29.970 fps
Resolution                       : 24 bits
Colorimetry                      : 4:2:0
Scan type                        : Progressive
Bits/(Pixel*Frame)               : 0.259
Stream size                      : 1.24 GiB (91%)
Writing library                  : XviD 1.2.1 (UTC 2008-12-04)

Audio
ID                               : 1
Format                           : MPEG Audio
Format version                   : Version 1
Format profile                   : Layer 3
Codec ID                         : 55
Codec ID/Hint                    : MP3
Duration                         : 1h 55mn
Bit rate mode                    : Variable
Bit rate                         : 140 Kbps
Channel(s)                       : 2 channels
Sampling rate                    : 48.0 KHz
Resolution                       : 16 bits
Stream size                      : 116 MiB (8%)
Alignment                        : Aligned on interleaves
Interleave, duration             : 24 ms (0.72 video frame)
Interleave, preload duration     : 457 ms
Writing library                  : LAME3.89 (alpha)